<svg width="358" height="358" viewBox="0 0 358 358" fill="none" xmlns="http://www.w3.org/2000/svg">
    <path fill-rule="evenodd" clip-rule="evenodd" d="M211.99 219.029C214.28 218.739 216.35 217.549 217.76 215.719C219.17 213.889 219.8 211.589 219.5 209.299C216.48 185.759 208.09 120.259 204.39 91.3387C203.24 82.3987 198.39 74.3587 191.01 69.1787C189.15 67.8787 187.83 66.9387 187.83 66.9387L186.58 57.1987L147.41 62.2187L148.66 71.9587C148.66 71.9587 147.61 73.1987 146.14 74.9287C140.31 81.7987 137.63 90.8087 138.78 99.7487L153.89 217.709C154.18 219.999 155.37 222.069 157.2 223.479C159.03 224.889 161.33 225.519 163.62 225.219C176.19 223.619 199.42 220.639 211.99 219.029Z" fill="#E4EAF0"/>
    <path fill-rule="evenodd" clip-rule="evenodd" d="M187.64 48.7889C187.49 47.6389 186.44 46.8289 185.29 46.9689C177.96 47.9089 153.38 51.0589 146.05 51.9989C144.9 52.1489 144.09 53.1989 144.23 54.3489L145.83 66.8189C145.98 67.9689 147.03 68.7789 148.18 68.6389C155.51 67.6989 180.08 64.5489 187.42 63.6089C188.57 63.4589 189.38 62.4089 189.24 61.2589C188.83 58.0589 188.05 51.9789 187.64 48.7889Z" fill="#D1DDE5"/>
    <path fill-rule="evenodd" clip-rule="evenodd" d="M204.98 50.1592C192.46 94.9692 181.02 182.149 181.77 186.319C182.24 188.949 186.75 188.659 187.44 186.549C188.08 184.589 211.44 49.9992 210.7 47.7092C210.22 46.2092 205.37 48.1792 204.98 50.1592Z" fill="#BEC9D1"/>
    <path fill-rule="evenodd" clip-rule="evenodd" d="M196.22 169.419C216.65 127.619 243 43.7485 243 39.5085C243 37.4285 240.45 35.2785 239.56 36.3485C235.82 40.8585 189.79 165.539 189.96 168.049C190.14 170.499 195.15 171.619 196.22 169.419Z" fill="#BEC9D1"/>
    <path fill-rule="evenodd" clip-rule="evenodd" d="M230.59 27.8291C211.53 70.2791 194.38 166.209 194.5 170.449C194.57 173.119 199.09 173.339 200.08 171.359C201 169.519 236.51 29.4991 236.51 26.9891C236.51 25.5191 231.59 25.5991 230.59 27.8291Z" fill="#BEC9D1"/>
    <path fill-rule="evenodd" clip-rule="evenodd" d="M162.3 126.509C162.3 147.279 146.31 161.599 126.59 161.599C106.87 161.599 90.8799 144.899 90.8799 124.129C90.8799 103.359 106.87 88.8994 126.59 88.8994C146.31 88.8994 162.3 105.739 162.3 126.509Z" fill="#BEC9D1"/>
    <path fill-rule="evenodd" clip-rule="evenodd" d="M118.78 100.819C118.78 100.819 112.99 86.7787 104.47 79.4287C96.7498 72.7687 79.7998 69.6387 79.7998 69.6387C79.7998 69.6387 81.2698 88.4887 88.5598 95.6287C102.4 109.179 118.78 100.819 118.78 100.819Z" fill="#E4EAF0"/>
    <path fill-rule="evenodd" clip-rule="evenodd" d="M202.51 199.849C192.87 204.889 176.84 194.289 177.7 183.449C180.04 154.119 232 76.4186 258.07 62.7686C267.71 57.7286 283.74 67.4486 282.88 78.2886C280.53 107.629 228.58 186.209 202.51 199.849Z" fill="#E4EAF0"/>
    <path d="M266.53 84.2891C266.53 84.2891 261.23 91.0491 250.66 90.5891" stroke="#D1DDE5" stroke-width="4" stroke-miterlimit="10" stroke-linecap="round" stroke-linejoin="round"/>
    <path d="M255.59 104.549C255.59 104.549 250.29 111.309 239.72 110.849" stroke="#D1DDE5" stroke-width="4" stroke-miterlimit="10" stroke-linecap="round" stroke-linejoin="round"/>
    <path fill-rule="evenodd" clip-rule="evenodd" d="M276.84 308.459H81.25C81.25 308.459 82.89 174.159 85.9 120.769C85.99 119.229 87.52 118.219 88.97 118.739L99.54 122.529L115.42 117.699L131.3 122.529L147.26 117.699L163.14 122.529L179.02 117.699L194.9 122.529L210.78 117.699L226.66 122.529L242.54 117.699L258.42 122.529L269.18 118.709C270.62 118.199 272.15 119.189 272.24 120.719C274.56 158.569 276.84 308.459 276.84 308.459Z" fill="#F7F8FA"/>
    <path d="M153.87 239.429C153.87 244.039 157.67 247.809 162.31 247.809C166.95 247.809 170.75 244.039 170.75 239.429C170.75 234.819 166.95 231.049 162.31 231.049C157.66 231.059 153.87 234.829 153.87 239.429ZM187.79 239.429C187.79 244.039 191.59 247.809 196.23 247.809C200.87 247.809 204.67 244.039 204.67 239.429C204.67 234.819 200.87 231.049 196.23 231.049C191.59 231.059 187.79 234.829 187.79 239.429ZM125.51 168.719V180.109H134.46C138 180.109 141.13 182.539 141.97 185.969L151.34 225.009H209.4L216.57 195.179H204.84L200.37 213.609H160.37L155.9 195.179H204.85L207.55 183.789H153.2L153.12 183.289C151.01 174.739 143.42 168.709 134.47 168.709H125.51V168.719Z" fill="#D1DDE5"/>
    <path d="M66.39 319.429H54C44.06 319.429 36 311.369 36 301.429V276.249C36 266.019 44.29 257.729 54.52 257.729H66.38C76.61 257.729 84.9 266.019 84.9 276.249V300.909C84.91 311.139 76.62 319.429 66.39 319.429Z" fill="#D1DDE5"/>
    <path d="M62.8001 244.639H58.1201C54.8101 244.639 52.1201 247.329 52.1201 250.639V257.729H68.8001V250.639C68.8001 247.319 66.1101 244.639 62.8001 244.639Z" fill="#E4EAF0"/>
    <path d="M125.57 331.829H58.24C49.84 331.829 44.01 323.469 46.91 315.579L73.04 244.629H110.77L136.9 315.579C139.8 323.469 133.97 331.829 125.57 331.829Z" fill="#E4EAF0"/>
    <path d="M102.77 227.869H81.04C76.62 227.869 73.04 231.449 73.04 235.869V244.639H110.77V235.869C110.77 231.449 107.19 227.869 102.77 227.869Z" fill="#BEC9D1"/>
    <path d="M74.3799 278.809C74.3799 278.809 96.2199 277.109 109.43 278.809" stroke="white" stroke-width="4" stroke-miterlimit="10" stroke-linecap="round" stroke-linejoin="round"/>
    <path d="M71.2 290.739C71.2 290.739 94.9099 291.899 113.7 290.739" stroke="white" stroke-width="4" stroke-miterlimit="10" stroke-linecap="round" stroke-linejoin="round"/>
    <path d="M281.66 331.829C303.503 331.829 321.21 314.121 321.21 292.279C321.21 270.436 303.503 252.729 281.66 252.729C259.817 252.729 242.11 270.436 242.11 292.279C242.11 314.121 259.817 331.829 281.66 331.829Z" fill="#D1DDE5"/>
    <path d="M273.9 261.888C273.9 261.888 257.94 265.838 253.6 283.918" stroke="white" stroke-width="4" stroke-miterlimit="10" stroke-linecap="round" stroke-linejoin="round"/>
</svg>